<?xml version="1.0" encoding="UTF-8" standalone="no"?>
<!-- Created with Inkscape (http://www.inkscape.org/) -->

<svg
   width="76.752502mm"
   height="114.04077mm"
   viewBox="0 0 80.792108 120.04292"
   version="1.1"
   id="svg1"
   xml:space="preserve"
   inkscape:version="1.4 (86a8ad7, 2024-10-11)"
   sodipodi:docname="logo.svg"
   inkscape:export-filename="FIRE-GNN_Logo.png"
   inkscape:export-xdpi="204.79221"
   inkscape:export-ydpi="204.79221"
   xmlns:inkscape="http://www.inkscape.org/namespaces/inkscape"
   xmlns:sodipodi="http://sodipodi.sourceforge.net/DTD/sodipodi-0.dtd"
   xmlns="http://www.w3.org/2000/svg"
   xmlns:svg="http://www.w3.org/2000/svg"><sodipodi:namedview
     id="namedview1"
     pagecolor="#ffffff"
     bordercolor="#000000"
     borderopacity="0.25"
     inkscape:showpageshadow="2"
     inkscape:pageopacity="0.0"
     inkscape:pagecheckerboard="0"
     inkscape:deskcolor="#d1d1d1"
     inkscape:document-units="mm"
     inkscape:zoom="2.5306494"
     inkscape:cx="-217.92825"
     inkscape:cy="66.978855"
     inkscape:window-width="1920"
     inkscape:window-height="1121"
     inkscape:window-x="-9"
     inkscape:window-y="-9"
     inkscape:window-maximized="1"
     inkscape:current-layer="layer1"
     inkscape:export-bgcolor="#ffffffff" /><defs
     id="defs1" /><g
     inkscape:label="Layer 1"
     inkscape:groupmode="layer"
     id="layer1"
     transform="translate(-59.479597,-183.45368)"><g
       id="g10"
       transform="translate(1.1917341,1.5889788)"><path
         style="fill:none;stroke:#c01f1f;stroke-width:3;stroke-dasharray:none;stroke-opacity:1"
         d="m 85.023253,257.91328 c 0,0 -3.165303,-7.6743 -2.401648,-13.67605 0.763655,-6.00175 9.673306,-17.94564 9.673306,-17.94564 0,0 -0.727544,7.13743 3.469044,12.60865 4.196591,5.47121 9.606595,7.13822 9.606595,7.13822"
         id="path4-7"
         sodipodi:nodetypes="czczc" /><path
         style="fill:none;stroke:#c01f1f;stroke-width:3;stroke-dasharray:none;stroke-opacity:1"
         d="m 96.380541,277.75483 c -2.392227,0.0951 -4.877011,-0.10394 -7.421251,-0.69509 -18.199206,-4.22855 -26.947629,-22.93787 -27.885795,-33.62306 -0.938166,-10.68519 5.421743,-19.44568 9.715735,-25.03531 4.293992,-5.58964 7.502778,-12.54194 7.502778,-12.54194 0,0 1.611139,5.0091 1.288464,8.41248 -0.322675,3.40337 -2.579952,8.10974 -2.849095,11.49881 -0.269143,3.38908 0.847723,8.23187 0.847723,8.23187"
         id="path1-6"
         sodipodi:nodetypes="cszzczzc" /><path
         style="fill:none;stroke:#c01f1f;stroke-width:3;stroke-dasharray:none;stroke-opacity:1"
         d="m 77.989955,220.49056 c 2.963844,-4.27255 8.064375,-8.65492 10.902623,-12.54489 2.838248,-3.88996 4.453837,-6.94565 6.337677,-10.87412 1.88385,-3.92847 0.73384,-9.94016 0.73384,-9.94016 0,0 7.552875,5.97593 10.073585,11.00755 2.5207,5.03163 3.68477,11.62961 2.00136,17.07838 -1.6834,5.44878 -3.31022,9.82728 -2.80191,13.4092 0.50831,3.58193 5.20356,6.87138 5.20356,6.87138"
         id="path2-3"
         sodipodi:nodetypes="czzczzzc" /><circle
         style="fill:#751ed7;fill-opacity:1;stroke:#751ed7;stroke-width:2;stroke-dasharray:none;stroke-opacity:1"
         id="path3-1"
         cx="83.422157"
         cy="260.11478"
         r="4.8032947" /><circle
         style="fill:#751ed7;fill-opacity:1;stroke:#751ed7;stroke-width:2;stroke-dasharray:none;stroke-opacity:1"
         id="path3-3-9"
         cx="105.81941"
         cy="245.66055"
         r="4.8032947" /><circle
         style="fill:#751ed7;fill-opacity:1;stroke:#751ed7;stroke-width:2;stroke-dasharray:none;stroke-opacity:1"
         id="path3-31-4"
         cx="122.03703"
         cy="213.0977"
         r="4.8032947" /><circle
         style="fill:#751ed7;fill-opacity:1;stroke:#751ed7;stroke-width:2;stroke-dasharray:none;stroke-opacity:1"
         id="path3-9-7"
         cx="132.8026"
         cy="236.849"
         r="4.8032947" /><circle
         style="fill:#751ed7;fill-opacity:1;stroke:#751ed7;stroke-width:2;stroke-dasharray:none;stroke-opacity:1"
         id="path3-95-2"
         cx="121.49979"
         cy="265.49759"
         r="4.8032947" /><circle
         style="fill:#751ed7;fill-opacity:1;stroke:#751ed7;stroke-width:2;stroke-dasharray:none;stroke-opacity:1"
         id="path3-95-2-5"
         cx="98.138443"
         cy="277.44653"
         r="4.8032947" /><path
         style="fill:none;stroke:#751ed7;stroke-width:3;stroke-dasharray:none;stroke-opacity:1"
         d="m 83.422159,260.11479 22.648871,-13.97625 15.77749,-32.12204 11.40782,22.94907 -11.90816,28.61964 -15.21044,-19.48003"
         id="path7-0"
         sodipodi:nodetypes="cccccc" /><path
         style="fill:none;stroke:#751ed7;stroke-width:3;stroke-dasharray:none;stroke-opacity:1"
         d="M 83.573474,259.78575 98.116783,277.7981 121.73298,265.58973"
         id="path8"
         sodipodi:nodetypes="ccc" /></g><g
       id="g9"
       transform="rotate(-0.25972796,25278.556,9523.4216)"><text
         xml:space="preserve"
         style="font-weight:bold;font-size:13.3848px;font-family:Lato;-inkscape-font-specification:'Lato Bold';fill:#751ed7;fill-opacity:1;stroke:#751ed7;stroke-width:8.623;stroke-dasharray:none;stroke-opacity:1"
         x="144.50395"
         y="188.2644"
         id="text8"
         transform="rotate(0.06547947)"><tspan
           sodipodi:role="line"
           id="tspan8"
           style="font-style:normal;font-variant:normal;font-weight:900;font-stretch:normal;font-family:Lato;-inkscape-font-specification:'Lato Heavy';stroke:none;stroke-width:8.623"
           x="144.50395"
           y="188.2644">GNN</tspan></text><text
         xml:space="preserve"
         style="font-style:normal;font-variant:normal;font-weight:900;font-stretch:normal;font-size:13.3464px;font-family:Lato;-inkscape-font-specification:'Lato Heavy';fill:#c01f1f;fill-opacity:1;stroke:none;stroke-width:8.59826;stroke-dasharray:none;stroke-opacity:1"
         x="110.57494"
         y="188.4294"
         id="text9"><tspan
           sodipodi:role="line"
           id="tspan9"
           style="fill:#c01f1f;fill-opacity:1;stroke:none;stroke-width:8.59826"
           x="110.57494"
           y="188.4294">FIRE</tspan></text><text
         xml:space="preserve"
         style="font-style:normal;font-variant:normal;font-weight:900;font-stretch:normal;font-size:13.3464px;font-family:Lato;-inkscape-font-specification:'Lato Heavy';fill:#c01f1f;fill-opacity:1;stroke:none;stroke-width:8.59826;stroke-dasharray:none;stroke-opacity:1"
         x="138.90334"
         y="188.4294"
         id="text9-9"><tspan
           sodipodi:role="line"
           id="tspan9-6"
           style="fill:#535353;fill-opacity:1;stroke:none;stroke-width:8.59826"
           x="138.90334"
           y="188.4294">-</tspan></text></g></g></svg>
